<svg version="1.1" id="Layer_1" xmlns="http://www.w3.org/2000/svg" xmlns:xlink="http://www.w3.org/1999/xlink" x="0px" y="0px"
	 width="100%" viewBox="0 0 1344 768" enable-background="new 0 0 1344 768" xml:space="preserve">
<path fill="#000000" opacity="1.000000" stroke="none" 
	d="
M1256.000000,769.000000 
	C837.382751,769.000000 419.265472,769.000000 1.074101,769.000000 
	C1.074101,513.079651 1.074101,257.159302 1.074101,1.119466 
	C448.999969,1.119466 897.000000,1.119466 1344.994263,1.119466 
	C1344.994263,257.068146 1344.994263,513.034058 1344.991455,769.000000 
	C1315.492310,769.000000 1285.996216,769.000000 1256.000000,769.000000 
M651.011719,493.984680 
	C651.011719,493.984680 650.944397,493.981293 651.184570,494.359528 
	C651.364563,494.612335 651.603455,494.782471 652.650513,495.058289 
	C656.785156,496.048737 660.919739,497.039154 665.372559,498.537048 
	C665.852600,499.359314 666.332703,500.181580 665.982910,501.028595 
	C664.675415,501.253906 663.364929,501.687958 662.060852,501.669739 
	C655.058716,501.571838 647.384705,504.687592 641.956055,496.969421 
	C640.995667,495.603912 638.091980,495.248810 636.036194,495.097046 
	C633.246582,494.891113 630.409546,495.462921 627.592346,495.469513 
	C618.678772,495.490326 609.764648,495.337860 600.851196,495.374298 
	C589.283936,495.421570 577.716187,495.527069 566.150513,495.722504 
	C559.388245,495.836731 552.629700,496.174988 545.454773,496.275299 
	C545.454773,496.275299 545.048401,496.114929 544.835327,495.910370 
	C544.549194,495.754181 544.288513,495.795349 544.060486,496.087677 
	C544.060486,496.087677 544.073730,496.140381 543.190186,496.106995 
	C524.271851,496.094177 505.353546,496.078766 486.435242,496.075714 
	C485.440063,496.075562 484.169922,495.812012 483.504730,496.309235 
	C481.927307,497.488159 480.636810,499.050964 479.230377,500.458649 
	C480.753845,501.303833 482.273865,502.877991 483.801300,502.885223 
	C508.234406,503.000702 532.668457,502.916138 557.860901,502.913147 
	C558.873474,502.903870 559.886108,502.894592 561.628235,502.929260 
	C562.115051,502.914764 562.601807,502.900238 564.011658,502.926453 
	C583.307007,502.913788 602.602356,502.901154 622.834045,502.963837 
	C626.820618,502.821381 630.829285,502.376251 634.784485,502.664368 
	C636.758301,502.808136 638.683899,504.200348 640.542236,505.194366 
	C642.898621,506.454742 645.147766,509.023621 647.472046,509.057678 
	C663.620056,509.294342 679.776611,509.087677 695.927185,508.822754 
	C697.934998,508.789856 700.867126,508.177795 701.743225,506.799469 
	C704.332336,502.725922 708.009277,503.020599 711.835754,503.021271 
	C756.976379,503.029480 802.117004,503.029663 847.257629,503.025574 
	C850.088989,503.025299 852.921143,503.005280 855.751526,502.935364 
	C859.321594,502.847168 859.944336,500.675720 857.980286,498.431519 
	C856.584717,496.836945 854.092224,495.828674 851.922180,495.394836 
	C849.904175,494.991394 847.661133,495.911652 845.523682,495.874695 
	C832.947510,495.657288 820.374146,495.173645 807.797852,495.095184 
	C799.375000,495.042603 790.950012,495.574066 782.523926,495.735321 
	C768.287354,496.007721 754.049194,496.193909 739.262268,496.375580 
	C738.894104,496.347198 738.525879,496.318817 737.538269,495.879608 
	C729.997864,495.670227 722.448059,495.136566 714.920166,495.355865 
	C709.072449,495.526215 702.974182,494.391602 698.021545,499.895508 
	C695.013977,503.237823 690.111755,503.356934 685.445251,500.733551 
	C686.773254,499.308807 687.864441,498.138062 688.996887,496.982269 
	C688.996887,496.982269 688.978149,496.942627 689.671936,496.830231 
	C692.084534,494.875549 694.497131,492.920868 696.960388,490.940460 
	C696.960388,490.940460 696.998901,490.898804 697.837280,490.879517 
	C703.245361,490.551392 708.653503,490.223297 714.913635,489.950378 
	C716.634827,489.950836 718.355957,489.951324 720.496216,489.979126 
	C720.496216,489.979126 720.915894,489.962738 721.680054,489.995117 
	C722.441406,489.966736 723.202820,489.938354 724.759827,489.978333 
	C726.349731,489.994263 727.939636,490.010223 730.523315,490.069244 
	C732.839050,490.054871 735.154785,490.040497 738.258972,490.120544 
	C739.850220,490.049622 741.441406,489.978668 743.869690,489.973297 
	C745.275330,489.971558 746.680908,489.969788 748.490356,489.987122 
	C748.490356,489.987122 748.893921,489.964264 749.852661,490.017334 
	C757.871704,489.977020 765.890808,489.936737 774.483704,489.922791 
	C774.675171,489.917145 774.866577,489.911530 775.951538,489.953369 
	C778.915527,489.923279 781.879578,489.893219 785.798767,489.927368 
	C802.753784,489.931000 819.708862,489.937408 836.663879,489.931061 
	C837.658936,489.930695 838.893127,490.176331 839.595642,489.694519 
	C840.795654,488.871399 842.230713,487.670380 842.468994,486.419037 
	C842.627441,485.586731 841.021545,484.179016 839.929321,483.432953 
	C839.209534,482.941284 838.000916,483.120575 837.007874,483.080109 
	C819.941101,482.384796 802.868652,481.807190 785.809204,480.965118 
	C778.882263,480.623260 771.983459,479.711731 764.333252,479.023193 
	C763.598755,479.059479 762.864319,479.095764 761.180237,479.076416 
	C754.492981,479.149170 747.805725,479.221924 740.582458,479.164856 
	C740.405518,479.114929 740.228638,479.065002 739.800964,478.821167 
	C739.482544,478.692291 739.198181,478.756927 738.514648,479.180084 
	C738.514648,479.180084 738.076477,479.331329 737.151733,479.217773 
	C728.745117,480.159973 720.338440,481.102142 711.507751,482.189606 
	C711.507751,482.189606 711.080200,482.324066 710.241150,482.241272 
	C705.170654,483.138611 700.100159,484.035950 694.771423,484.421661 
	C694.502747,483.911804 694.234070,483.401947 694.406128,482.363678 
	C695.943359,481.436737 697.371826,480.106812 699.037842,479.657440 
	C704.318604,478.232971 709.688110,477.137360 715.882202,475.996490 
	C716.744751,476.005737 717.607361,476.014984 719.146545,475.730469 
	C729.047119,474.831360 738.947632,473.932251 749.429382,473.578369 
	C751.280884,473.696594 753.132446,473.814819 755.922302,473.980804 
	C770.605957,474.961090 785.289551,475.941406 800.685059,476.962494 
	C801.392029,476.921173 802.099060,476.879822 803.723145,476.885529 
	C809.703613,477.383209 815.684082,477.880920 821.632019,478.375916 
	C822.394836,471.892883 822.067200,471.528351 813.201294,469.062988 
	C812.177246,469.085663 811.153259,469.108307 809.179016,469.070007 
	C803.480469,469.039948 797.781860,469.009918 791.626831,468.516449 
	C790.785034,468.381104 789.943237,468.245758 788.153137,468.053192 
	C780.104980,467.725861 772.056885,467.398529 763.187073,467.017181 
	C761.125610,467.335480 759.064087,467.653748 756.071472,468.006226 
	C751.676025,468.046112 747.280518,468.085999 742.254578,468.124603 
	C741.489319,468.401917 740.724060,468.679199 739.041016,468.993500 
	C732.800842,469.306458 726.560608,469.619385 720.476929,469.277740 
	C721.536438,468.543579 722.496399,467.486328 723.670654,467.124298 
	C738.273010,462.622772 753.360657,462.088348 768.464172,462.023315 
	C774.255737,461.998352 780.046143,462.788727 785.844421,462.962799 
	C794.318542,463.217255 802.820374,462.935486 811.268860,463.502167 
	C816.030823,463.821594 817.107849,463.247559 815.907410,458.654968 
	C815.445129,456.886444 815.292664,454.922638 814.382202,453.422089 
	C813.666870,452.243256 811.965515,450.847168 810.766968,450.904388 
	C799.840027,451.426392 788.919189,452.144928 778.013855,453.021332 
	C772.562927,453.459412 767.158569,454.473602 761.708130,454.925323 
	C760.540344,455.022064 759.264526,453.814545 758.038452,453.207916 
	C759.094543,452.397949 760.036682,451.163483 761.224548,450.844757 
	C771.317139,448.136536 781.485596,445.709717 791.569092,442.969299 
	C800.537842,440.531921 809.434753,437.828033 818.346313,435.184204 
	C820.636414,434.504822 822.370667,433.341736 821.085999,430.476685 
	C820.037903,428.139252 819.127319,425.677460 815.704895,426.805847 
	C813.661865,427.479462 811.579956,428.035767 809.539795,428.717499 
	C797.106384,432.872314 784.764160,437.323700 772.231140,441.150909 
	C754.315857,446.621674 736.186401,451.394928 718.296631,456.943787 
	C707.326294,460.346436 697.045227,465.448822 688.369751,473.200989 
	C684.566101,476.599792 681.017944,480.302399 677.534058,484.035339 
	C674.838257,486.923828 672.806580,487.150055 670.539551,483.529541 
	C668.968567,481.020599 667.231262,478.302582 664.884277,476.648590 
	C656.066589,470.434570 649.337280,461.241882 638.225769,458.249146 
	C631.699768,456.491455 625.454407,453.580597 618.872498,452.169281 
	C610.171753,450.303619 601.173950,449.831909 592.464050,447.999146 
	C566.441895,442.523529 540.647217,436.135101 515.825317,426.383911 
	C513.227234,425.363342 511.914612,425.781769 510.837799,428.385590 
	C509.025818,432.767212 509.792603,434.256561 514.838257,435.843750 
	C536.422729,442.633484 558.351257,447.896545 580.773438,451.070190 
	C583.461243,451.450592 586.057190,452.479095 588.695740,453.207214 
	C588.588135,453.815460 588.480530,454.423706 588.372925,455.031952 
	C585.252563,455.031952 582.116699,455.233978 579.014709,454.995453 
	C568.114929,454.157104 557.235474,453.044403 546.331360,452.276031 
	C538.388916,451.716370 530.422302,451.415924 522.461243,451.246307 
	C519.438416,451.181854 515.636597,456.756287 516.421753,460.188599 
	C517.351196,464.251526 520.723450,462.851196 523.386108,462.657959 
	C525.860596,462.478363 528.320984,461.880035 530.789001,461.870819 
	C549.612610,461.800568 568.453186,461.358887 587.253540,462.022339 
	C596.933167,462.363953 606.541382,464.728546 615.677002,466.652313 
	C614.545349,466.829742 613.413757,467.007141 611.383179,467.073151 
	C604.456848,467.106567 597.527588,467.022858 590.604736,467.194550 
	C566.180359,467.800201 541.757385,468.466156 517.335693,469.173218 
	C511.439850,469.343903 509.910675,471.142731 509.733673,477.885529 
	C543.139954,477.114288 576.388550,470.784912 609.921753,474.961487 
	C599.984131,476.431732 590.013062,477.353363 580.030762,478.131226 
	C569.946411,478.917053 559.855408,479.634766 549.759216,480.249146 
	C533.366211,481.246735 516.971375,482.244873 500.565094,482.966797 
	C497.714905,483.092224 495.158966,482.426941 494.941742,486.383484 
	C494.713623,490.537445 497.910248,489.733185 500.142212,489.753296 
	C516.474121,489.900635 532.807251,489.921417 549.140015,489.961029 
	C555.638794,489.976776 562.137695,489.937561 568.636536,489.926178 
	C582.043640,489.902679 595.450806,489.860352 608.857910,489.875671 
	C611.638184,489.878845 614.420654,490.234772 617.197815,490.186249 
	C620.913879,490.121338 624.650818,489.457764 628.333191,489.712006 
	C633.049255,490.037659 637.722473,491.004242 642.409119,491.727203 
	C644.933289,492.116577 647.446960,492.573944 649.974426,493.032928 
	C649.974426,493.032928 650.003052,493.020447 650.283264,493.419373 
	C650.497925,493.668396 650.745422,493.878815 651.011719,493.984680 
M680.051392,413.846588 
	C692.569275,411.240051 702.776367,404.824707 711.225037,395.303040 
	C723.768127,381.166992 728.718384,364.624756 725.123657,346.288849 
	C721.348083,327.030731 709.602905,313.263214 691.408936,305.956696 
	C683.678650,302.852295 674.836731,299.621399 666.910156,300.436493 
	C641.874023,303.011108 622.924744,315.431458 614.842163,340.433350 
	C607.997070,361.607391 611.846069,381.070587 627.745605,397.113708 
	C641.865173,411.360809 659.219055,416.983551 680.051392,413.846588 
z"/>
<path fill="#481514" opacity="1.000000" stroke="none" 
	d="
M738.076477,479.331299 
	C738.076477,479.331329 738.514648,479.180084 739.007385,479.101501 
	C739.683960,479.020294 739.867798,479.017670 740.051697,479.015045 
	C740.228638,479.065002 740.405518,479.114929 741.218384,479.337036 
	C774.332764,481.715851 806.811279,483.922485 839.289734,486.129150 
	C838.174011,487.411560 836.986877,487.861145 835.774109,487.946594 
	C833.617432,488.098572 831.445190,488.051239 829.279480,488.050507 
	C789.457886,488.036957 749.635925,487.930145 709.815369,488.127411 
	C705.538757,488.148621 701.270874,489.932587 696.998901,490.898804 
	C696.998901,490.898804 696.960388,490.940460 696.592712,491.025940 
	C693.809387,493.055176 691.393799,494.998901 688.978149,496.942627 
	C688.978149,496.942627 688.996887,496.982269 688.511963,496.968353 
	C681.449707,496.690552 674.840332,496.740570 668.304443,496.071808 
	C662.151062,495.442169 656.075256,494.054688 649.965332,493.000641 
	C647.446960,492.573944 644.933289,492.116577 642.409119,491.727203 
	C637.722473,491.004242 633.049255,490.037659 628.333191,489.712006 
	C624.650818,489.457764 620.913879,490.121338 617.197815,490.186249 
	C614.420654,490.234772 611.638184,489.878845 608.857910,489.875671 
	C595.450806,489.860352 582.043640,489.902679 568.636536,489.926178 
	C562.137695,489.937561 555.638794,489.976776 549.140015,489.961029 
	C532.807251,489.921417 516.474121,489.900635 500.142212,489.753296 
	C497.910248,489.733185 494.713623,490.537445 494.941742,486.383484 
	C495.158966,482.426941 497.714905,483.092224 500.565094,482.966797 
	C516.971375,482.244873 533.366211,481.246735 549.759216,480.249146 
	C559.855408,479.634766 569.946411,478.917053 580.030762,478.131226 
	C590.013062,477.353363 599.984131,476.431732 609.921753,474.961487 
	C576.388550,470.784912 543.139954,477.114288 509.733673,477.885529 
	C509.910675,471.142731 511.439850,469.343903 517.335693,469.173218 
	C541.757385,468.466156 566.180359,467.800201 590.604736,467.194550 
	C597.527588,467.022858 604.456848,467.106567 612.191467,467.204590 
	C622.234619,469.425018 631.460876,471.554108 640.716614,473.545959 
	C641.731262,473.764313 642.915588,473.194458 644.402710,473.027557 
	C647.857910,474.041779 650.931580,475.018555 654.017578,476.008545 
	C654.030029,476.021759 653.995544,476.004700 653.838379,475.706451 
	C649.063599,470.659210 642.457703,468.447601 638.277405,470.336670 
	C636.270630,469.869354 634.630737,469.439270 632.883057,468.778503 
	C629.225830,467.993408 625.676331,467.439026 621.752136,466.853088 
	C619.645630,466.607361 617.913696,466.393188 616.181824,466.179016 
	C606.541382,464.728546 596.933167,462.363953 587.253540,462.022339 
	C568.453186,461.358887 549.612610,461.800568 530.789001,461.870819 
	C528.320984,461.880035 525.860596,462.478363 523.386108,462.657959 
	C520.723450,462.851196 517.351196,464.251526 516.421753,460.188599 
	C515.636597,456.756287 519.438416,451.181854 522.461243,451.246307 
	C530.422302,451.415924 538.388916,451.716370 546.331360,452.276031 
	C557.235474,453.044403 568.114929,454.157104 579.014709,454.995453 
	C582.116699,455.233978 585.252563,455.031952 588.372925,455.031952 
	C588.480530,454.423706 588.588135,453.815460 588.695740,453.207214 
	C586.057190,452.479095 583.461243,451.450592 580.773438,451.070190 
	C558.351257,447.896545 536.422729,442.633484 514.838257,435.843750 
	C509.792603,434.256561 509.025818,432.767212 510.837799,428.385590 
	C511.914612,425.781769 513.227234,425.363342 515.825317,426.383911 
	C540.647217,436.135101 566.441895,442.523529 592.464050,447.999146 
	C601.173950,449.831909 610.171753,450.303619 618.872498,452.169281 
	C625.454407,453.580597 631.699768,456.491455 638.225769,458.249146 
	C649.337280,461.241882 656.066589,470.434570 664.884277,476.648590 
	C667.231262,478.302582 668.968567,481.020599 670.539551,483.529541 
	C672.806580,487.150055 674.838257,486.923828 677.534058,484.035339 
	C681.017944,480.302399 684.566101,476.599792 688.369751,473.200989 
	C697.045227,465.448822 707.326294,460.346436 718.296631,456.943787 
	C736.186401,451.394928 754.315857,446.621674 772.231140,441.150909 
	C784.764160,437.323700 797.106384,432.872314 809.539795,428.717499 
	C811.579956,428.035767 813.661865,427.479462 815.704895,426.805847 
	C819.127319,425.677460 820.037903,428.139252 821.085999,430.476685 
	C822.370667,433.341736 820.636414,434.504822 818.346313,435.184204 
	C809.434753,437.828033 800.537842,440.531921 791.569092,442.969299 
	C781.485596,445.709717 771.317139,448.136536 761.224548,450.844757 
	C760.036682,451.163483 759.094543,452.397949 758.038452,453.207886 
	C759.264526,453.814545 760.540344,455.022064 761.708130,454.925323 
	C767.158569,454.473602 772.562927,453.459412 778.013855,453.021332 
	C788.919189,452.144928 799.840027,451.426392 810.766968,450.904388 
	C811.965515,450.847168 813.666870,452.243256 814.382202,453.422089 
	C815.292664,454.922638 815.445129,456.886444 815.907410,458.654968 
	C817.107849,463.247559 816.030823,463.821594 811.268860,463.502167 
	C802.820374,462.935486 794.318542,463.217255 785.844421,462.962799 
	C780.046143,462.788727 774.255737,461.998352 768.464172,462.023315 
	C753.360657,462.088348 738.273010,462.622772 723.670654,467.124298 
	C722.496399,467.486328 721.536438,468.543579 720.031494,469.745056 
	C709.922058,473.749573 700.245117,477.252014 690.599976,480.840118 
	C686.464722,482.378571 685.570618,485.175049 687.864075,489.548767 
	C695.672424,487.118866 703.376282,484.721466 711.080200,482.324066 
	C711.080200,482.324066 711.507751,482.189606 712.085754,482.222229 
	C721.134644,481.280365 729.605591,480.305817 738.076477,479.331299 
M651.849365,480.285156 
	C644.692810,478.917938 637.536255,477.550690 630.379639,476.183472 
	C630.302551,476.569733 630.225403,476.956024 630.148315,477.342285 
	C631.186646,477.817352 632.224915,478.292419 632.789368,479.045044 
	C629.848572,482.105957 633.211670,481.696228 634.554260,482.006897 
	C640.028137,483.273560 645.545837,484.349335 651.034668,485.553467 
	C653.774658,486.154541 656.458313,487.228943 659.219849,487.458221 
	C662.350769,487.718170 663.980042,485.009796 662.514893,482.605316 
	C660.889404,479.937531 655.615601,478.870148 651.849365,480.285156 
M647.967590,476.458130 
	C647.967590,476.458130 648.008789,476.462128 647.967590,476.458130 
z"/>
<path fill="#3C0505" opacity="1.000000" stroke="none" 
	d="
M679.625916,413.892822 
	C659.219055,416.983551 641.865173,411.360809 627.745605,397.113708 
	C611.846069,381.070587 607.997070,361.607391 614.842163,340.433350 
	C622.924744,315.431458 641.874023,303.011108 666.910156,300.436493 
	C674.836731,299.621399 683.678650,302.852295 691.408936,305.956696 
	C709.602905,313.263214 721.348083,327.030731 725.123657,346.288849 
	C728.718384,364.624756 723.768127,381.166992 711.225037,395.303040 
	C702.776367,404.824707 692.569275,411.240051 679.625916,413.892822 
M705.554871,396.208740 
	C705.331970,396.432648 705.129395,396.673615 704.301086,397.167145 
	C702.486084,398.341736 700.669006,399.513153 698.856445,400.691406 
	C681.151184,412.200287 662.539124,411.841675 645.051758,400.064026 
	C636.432800,394.259155 630.760010,386.374329 626.386658,377.153687 
	C615.099243,353.355621 627.126587,323.540436 646.406433,311.653870 
	C648.849121,310.147888 654.624268,309.335114 655.172791,310.298279 
	C657.348572,314.119232 653.157776,315.857544 650.762085,317.907166 
	C637.434753,329.309204 631.121765,343.619049 636.206848,360.673706 
	C641.223633,377.499054 652.898071,388.421997 670.784119,391.579651 
	C676.318542,392.556702 681.479004,391.528137 687.472778,388.003540 
	C685.077271,387.506165 684.020386,387.159119 682.944092,387.082001 
	C657.128479,385.232605 641.576721,362.599609 649.105591,337.802917 
	C653.150452,324.480988 665.436646,315.359558 679.348389,314.935333 
	C694.955139,314.459442 706.527222,321.339752 715.191833,333.849243 
	C716.812988,336.189850 718.316040,338.612274 719.873535,340.996979 
	C720.237854,338.977631 719.774292,337.424957 719.128357,335.952362 
	C706.978943,308.253937 669.390808,291.597015 639.247864,311.910583 
	C617.970459,326.249634 608.951721,353.779266 617.729675,377.838745 
	C626.419067,401.655487 658.311096,417.428833 679.269409,411.847046 
	C689.250793,409.188721 698.539795,405.595123 705.453186,396.773285 
	C705.699280,396.573761 705.922424,396.351166 706.134399,396.021606 
	C706.134399,396.021606 705.906372,395.891235 705.554871,396.208740 
M709.970947,390.086395 
	C710.164978,390.213257 710.359070,390.340118 710.933289,390.715485 
	C710.336487,390.204041 710.087097,389.990265 709.953857,389.079926 
	C710.374817,388.191437 710.650146,387.190155 711.238037,386.430939 
	C728.443726,364.213684 722.165894,334.185120 697.503967,320.865356 
	C684.809570,314.009155 670.749023,315.794586 660.089722,325.432922 
	C650.897095,333.745026 649.232910,344.488220 650.149170,355.968781 
	C651.620300,374.403412 674.707458,390.565765 690.881042,383.344849 
	C696.730225,380.733368 702.027710,376.886108 707.871704,373.866760 
	C707.871704,373.866760 708.172485,374.123993 707.926575,374.763550 
	C695.256531,392.775604 674.214111,400.423645 657.021851,389.591583 
	C625.863831,369.960419 625.166748,344.125977 646.665588,315.604095 
	C644.046509,316.690735 641.907349,318.143066 640.006775,319.859558 
	C638.808350,320.941864 638.069946,322.516693 636.948914,323.704163 
	C626.940735,334.305786 623.478638,347.179199 624.428528,361.309906 
	C625.296082,374.215118 632.056580,384.033356 640.683594,393.482697 
	C651.944153,405.816620 675.846313,411.319763 692.117249,401.813354 
	C698.242676,398.234528 703.900757,393.855835 709.970947,390.086395 
M723.325867,352.736511 
	C723.299866,353.283386 723.273865,353.830261 723.247864,354.377136 
	C723.450500,354.363586 723.653137,354.350006 723.855774,354.336456 
	C723.750305,353.776611 723.644897,353.216797 723.325867,352.736511 
M722.369934,347.529419 
	C722.369934,347.529419 722.580017,347.569244 722.580017,347.569244 
	C722.580017,347.569244 722.401550,347.445984 722.369934,347.529419 
M713.543945,387.955963 
	C713.543945,387.955963 713.539490,388.013397 713.543945,387.955963 
M690.952637,386.457672 
	C690.952637,386.457672 691.001282,386.461609 690.952637,386.457672 
M721.508911,344.547150 
	C721.508911,344.547150 721.482727,344.484955 721.508911,344.547150 
z"/>
<path fill="#3E0808" opacity="1.000000" stroke="none" 
	d="
M563.088623,502.885712 
	C562.601807,502.900238 562.115051,502.914764 560.997070,502.825867 
	C559.278076,502.774048 558.190186,502.825592 557.102295,502.877136 
	C532.668457,502.916138 508.234406,503.000702 483.801300,502.885223 
	C482.273865,502.877991 480.753845,501.303833 479.230377,500.458649 
	C480.636810,499.050964 481.927307,497.488159 483.504730,496.309235 
	C484.169922,495.812012 485.440063,496.075562 486.435242,496.075714 
	C505.353546,496.078766 524.271851,496.094177 543.638550,496.433594 
	C544.056396,497.173340 544.025879,497.586517 543.655029,498.025818 
	C542.860962,498.086853 542.407166,498.121735 541.489014,498.138000 
	C528.956055,498.061096 516.887329,498.002777 504.548706,497.938263 
	C503.919647,497.935272 503.560455,497.938446 502.720245,497.930450 
	C496.020691,498.028564 489.802216,498.137817 483.583710,498.247070 
	C483.599609,499.112213 483.615509,499.977356 483.631409,500.842499 
	C488.068451,500.842499 492.505524,500.842499 497.405762,500.868561 
	C501.942261,500.331390 506.015564,499.768127 510.551971,499.209106 
	C519.319092,499.188782 527.623047,499.164215 536.193115,499.362885 
	C538.323242,500.013397 540.187195,500.440674 542.515625,500.876343 
	C548.330933,500.853912 553.681946,500.823120 559.499268,500.806854 
	C580.206116,500.831055 600.446472,500.828552 620.686890,500.857239 
	C627.461670,500.866821 634.236267,500.956024 641.006653,501.005310 
	C641.002319,501.001770 640.994507,500.993011 641.149536,501.310242 
	C642.793701,505.571991 645.665894,507.100983 649.842346,507.076080 
	C664.654724,506.987762 679.469055,507.155273 694.280090,506.993927 
	C696.427673,506.970551 699.406372,506.327545 700.534424,504.851135 
	C703.300781,501.230438 706.755676,500.936371 710.695801,500.917236 
	C735.799133,500.795380 760.901978,500.518738 786.005310,500.451996 
	C804.953979,500.401611 823.903320,500.631439 842.852356,500.628571 
	C846.202759,500.628052 849.553040,500.096649 852.903320,499.810425 
	C852.031067,498.389465 851.161499,497.961945 850.282959,497.942871 
	C836.646851,497.646698 823.009338,497.177887 809.372803,497.200745 
	C788.763062,497.235291 768.154114,497.674469 747.544006,497.790039 
	C744.969177,497.804474 742.389282,496.896759 739.811707,496.416321 
	C754.049194,496.193909 768.287354,496.007721 782.523926,495.735321 
	C790.950012,495.574066 799.375000,495.042603 807.797852,495.095184 
	C820.374146,495.173645 832.947510,495.657288 845.523682,495.874695 
	C847.661133,495.911652 849.904175,494.991394 851.922180,495.394836 
	C854.092224,495.828674 856.584717,496.836945 857.980286,498.431519 
	C859.944336,500.675720 859.321594,502.847168 855.751526,502.935364 
	C852.921143,503.005280 850.088989,503.025299 847.257629,503.025574 
	C802.117004,503.029663 756.976379,503.029480 711.835754,503.021271 
	C708.009277,503.020599 704.332336,502.725922 701.743225,506.799469 
	C700.867126,508.177795 697.934998,508.789856 695.927185,508.822754 
	C679.776611,509.087677 663.620056,509.294342 647.472046,509.057678 
	C645.147766,509.023621 642.898621,506.454742 640.542236,505.194366 
	C638.683899,504.200348 636.758301,502.808136 634.784485,502.664368 
	C630.829285,502.376251 626.820618,502.821381 621.981506,502.809692 
	C619.157837,502.449860 617.187134,502.071594 615.215454,502.066010 
	C599.966309,502.022858 584.716858,502.019806 569.467957,502.094940 
	C567.340271,502.105408 565.215027,502.609894 563.088623,502.885712 
z"/>
<path fill="#50201E" opacity="1.000000" stroke="none" 
	d="
M739.536987,496.395935 
	C742.389282,496.896759 744.969177,497.804474 747.544006,497.790039 
	C768.154114,497.674469 788.763062,497.235291 809.372803,497.200745 
	C823.009338,497.177887 836.646851,497.646698 850.282959,497.942871 
	C851.161499,497.961945 852.031067,498.389465 852.903320,499.810425 
	C849.553040,500.096649 846.202759,500.628052 842.852356,500.628571 
	C823.903320,500.631439 804.953979,500.401611 786.005310,500.451996 
	C760.901978,500.518738 735.799133,500.795380 710.695801,500.917236 
	C706.755676,500.936371 703.300781,501.230438 700.534424,504.851135 
	C699.406372,506.327545 696.427673,506.970551 694.280090,506.993927 
	C679.469055,507.155273 664.654724,506.987762 649.842346,507.076080 
	C645.665894,507.100983 642.793701,505.571991 641.478088,501.456909 
	C645.126404,502.181763 648.571899,503.693207 652.081421,503.860596 
	C664.049316,504.431519 676.050781,504.927979 688.015808,504.596802 
	C692.360474,504.476532 696.642822,501.961212 700.945679,500.515320 
	C704.138489,499.442474 707.281982,497.549194 710.511841,497.398102 
	C717.632935,497.065002 724.795044,497.723083 731.939819,497.707947 
	C734.013428,497.703583 736.085144,496.788177 738.157715,496.290436 
	C738.525879,496.318817 738.894104,496.347198 739.536987,496.395935 
z"/>
<path fill="#3E0808" opacity="1.000000" stroke="none" 
	d="
M710.660645,482.282654 
	C703.376282,484.721466 695.672424,487.118866 687.864075,489.548767 
	C685.570618,485.175049 686.464722,482.378571 690.599976,480.840118 
	C700.245117,477.252014 709.922058,473.749573 719.953247,470.072357 
	C726.560608,469.619385 732.800842,469.306458 739.801453,468.923157 
	C741.336304,468.610504 742.110657,468.368164 742.885071,468.125854 
	C747.280518,468.085999 751.676025,468.046112 756.941467,467.990173 
	C759.877197,467.673157 761.942993,467.372162 764.008728,467.071167 
	C772.056885,467.398529 780.104980,467.725861 788.913818,468.202026 
	C790.477417,468.560547 791.280334,468.770203 792.083313,468.979858 
	C797.781860,469.009918 803.480469,469.039948 809.921021,469.183807 
	C811.765991,469.233643 812.868896,469.169678 813.971863,469.105713 
	C822.067200,471.528351 822.394836,471.892883 821.632019,478.375916 
	C815.684082,477.880920 809.703613,477.383209 803.034668,476.799774 
	C801.555176,476.783234 800.764221,476.852448 799.973206,476.921692 
	C785.289551,475.941406 770.605957,474.961090 755.093811,473.820374 
	C752.459595,473.451019 750.653931,473.242096 748.848206,473.033142 
	C738.947632,473.932251 729.047119,474.831360 718.524231,475.778656 
	C716.942383,475.856079 715.982849,475.885315 715.023315,475.914551 
	C709.688110,477.137360 704.318604,478.232971 699.037842,479.657440 
	C697.371826,480.106812 695.943359,481.436737 693.931274,482.663940 
	C692.915710,483.424011 692.374939,483.883820 691.834229,484.343628 
	C692.899353,484.540161 693.964539,484.736664 695.029663,484.933228 
	C700.100159,484.035950 705.170654,483.138611 710.660645,482.282654 
M810.865784,476.031769 
	C812.570190,476.023560 814.274658,476.015381 816.517395,476.017273 
	C816.696899,476.016907 816.876343,476.016541 817.580688,476.156464 
	C818.306885,475.985565 819.033081,475.814697 819.759216,475.643829 
	C819.389526,474.847687 819.204163,473.563934 818.617432,473.342133 
	C816.401489,472.504425 814.055054,472.011719 811.198914,471.353058 
	C810.823608,471.352112 810.448303,471.351166 809.129395,471.270142 
	C783.455322,470.123932 757.773438,467.274384 732.122131,471.651794 
	C739.239441,471.982910 746.358459,472.035339 753.476196,471.963806 
	C757.936523,471.918976 762.417908,471.331146 766.849304,471.616638 
	C775.277893,472.159698 783.677307,473.154175 792.816467,474.059998 
	C793.544617,474.188507 794.272766,474.317017 795.512268,474.598785 
	C796.034546,474.708252 796.556885,474.817688 797.705627,474.945221 
	C798.123535,474.952240 798.541443,474.959290 799.746887,475.001282 
	C800.797913,475.011597 801.848938,475.021881 803.690613,475.054413 
	C804.220764,475.052521 804.750916,475.050629 805.743958,475.093109 
	C805.743958,475.093109 806.208496,475.115509 806.208496,475.115509 
	C806.208496,475.115509 806.673523,475.113373 807.331848,475.381744 
	C808.225830,475.594299 809.119812,475.806824 810.865784,476.031769 
M724.994324,472.635742 
	C724.994324,472.635742 725.120728,472.397797 725.120728,472.397797 
	C725.120728,472.397797 724.914856,472.591095 724.994324,472.635742 
z"/>
<path fill="#3E0808" opacity="1.000000" stroke="none" 
	d="
M737.848022,496.085022 
	C736.085144,496.788177 734.013428,497.703583 731.939819,497.707947 
	C724.795044,497.723083 717.632935,497.065002 710.511841,497.398102 
	C707.281982,497.549194 704.138489,499.442474 700.945679,500.515320 
	C696.642822,501.961212 692.360474,504.476532 688.015808,504.596802 
	C676.050781,504.927979 664.049316,504.431519 652.081421,503.860596 
	C648.571899,503.693207 645.126404,502.181763 641.323059,501.139679 
	C640.994507,500.993011 641.002319,501.001770 640.843506,500.686951 
	C638.089539,499.277405 635.499878,497.260559 632.898499,497.245331 
	C620.768311,497.174316 608.635010,497.872223 596.502502,497.881348 
	C583.699036,497.890930 570.895081,497.432037 557.716187,497.217590 
	C554.514954,497.230164 551.688904,497.203003 548.559937,497.121948 
	C547.461243,496.849518 546.665344,496.630981 545.869507,496.412415 
	C552.629700,496.174988 559.388245,495.836731 566.150513,495.722504 
	C577.716187,495.527069 589.283936,495.421570 600.851196,495.374298 
	C609.764648,495.337860 618.678772,495.490326 627.592346,495.469513 
	C630.409546,495.462921 633.246582,494.891113 636.036194,495.097046 
	C638.091980,495.248810 640.995667,495.603912 641.956055,496.969421 
	C647.384705,504.687592 655.058716,501.571838 662.060852,501.669739 
	C663.364929,501.687958 664.675415,501.253906 666.871704,501.041016 
	C671.206543,501.049927 674.652588,501.046448 678.273315,500.884583 
	C678.273071,499.846558 678.098267,498.966919 677.465454,498.084839 
	C673.023071,498.064758 669.038757,498.047150 665.054382,498.029572 
	C660.919739,497.039154 656.785156,496.048737 652.123047,494.810303 
	C651.381470,494.365234 651.164429,494.171570 650.944397,493.981293 
	C650.944397,493.981293 651.011719,493.984680 650.846924,493.846252 
	C650.455750,493.478699 650.229431,493.249573 650.003052,493.020447 
	C650.003052,493.020447 649.974426,493.032928 649.969849,493.016785 
	C656.075256,494.054688 662.151062,495.442169 668.304443,496.071808 
	C674.840332,496.740570 681.449707,496.690552 688.491333,496.960876 
	C687.864441,498.138062 686.773254,499.308807 685.445251,500.733551 
	C690.111755,503.356934 695.013977,503.237823 698.021545,499.895508 
	C702.974182,494.391602 709.072449,495.526215 714.920166,495.355865 
	C722.448059,495.136566 729.997864,495.670227 737.848022,496.085022 
z"/>
<path fill="#3E0808" opacity="1.000000" stroke="none" 
	d="
M697.418091,490.889160 
	C701.270874,489.932587 705.538757,488.148621 709.815369,488.127411 
	C749.635925,487.930145 789.457886,488.036957 829.279480,488.050507 
	C831.445190,488.051239 833.617432,488.098572 835.774109,487.946594 
	C836.986877,487.861145 838.174011,487.411560 839.289734,486.129150 
	C806.811279,483.922485 774.332764,481.715851 741.486389,479.401917 
	C747.805725,479.221924 754.492981,479.149170 761.894897,479.166992 
	C763.430359,479.191498 764.251099,479.125427 765.071899,479.059387 
	C771.983459,479.711731 778.882263,480.623260 785.809204,480.965118 
	C802.868652,481.807190 819.941101,482.384796 837.007874,483.080109 
	C838.000916,483.120575 839.209534,482.941284 839.929321,483.432953 
	C841.021545,484.179016 842.627441,485.586731 842.468994,486.419037 
	C842.230713,487.670380 840.795654,488.871399 839.595642,489.694519 
	C838.893127,490.176331 837.658936,489.930695 836.663879,489.931061 
	C819.708862,489.937408 802.753784,489.931000 784.962708,489.785278 
	C781.103760,489.730774 778.080872,489.818359 775.057983,489.905914 
	C774.866577,489.911530 774.675171,489.917145 773.812134,489.790527 
	C765.058411,489.760254 756.976135,489.862244 748.893921,489.964264 
	C748.893921,489.964264 748.490356,489.987122 747.977539,489.860229 
	C745.987305,489.791473 744.510010,489.849609 743.032654,489.907715 
	C741.441406,489.978668 739.850220,490.049622 737.479858,489.926727 
	C734.310364,489.830658 731.919983,489.928406 729.529541,490.026154 
	C727.939636,490.010223 726.349731,489.994263 724.113037,489.871552 
	C722.616089,489.830780 721.765991,489.896759 720.915894,489.962738 
	C720.915894,489.962738 720.496216,489.979126 719.956543,489.843750 
	C717.631775,489.770660 715.846680,489.832947 714.061584,489.895203 
	C708.653503,490.223297 703.245361,490.551392 697.418091,490.889160 
z"/>
<path fill="#491A1A" opacity="1.000000" stroke="none" 
	d="
M563.550171,502.906067 
	C565.215027,502.609894 567.340271,502.105408 569.467957,502.094940 
	C584.716858,502.019806 599.966309,502.022858 615.215454,502.066010 
	C617.187134,502.071594 619.157837,502.449860 621.513306,502.772034 
	C602.602356,502.901154 583.307007,502.913788 563.550171,502.906067 
z"/>
<path fill="#6A413D" opacity="1.000000" stroke="none" 
	d="
M644.021179,472.990143 
	C642.915588,473.194458 641.731262,473.764313 640.716614,473.545959 
	C631.460876,471.554108 622.234619,469.425018 612.640930,467.260284 
	C613.413757,467.007141 614.545349,466.829742 615.929443,466.415680 
	C617.913696,466.393188 619.645630,466.607361 622.134216,466.930237 
	C626.257568,467.695709 629.624146,468.352478 632.990784,469.009216 
	C634.630737,469.439270 636.270630,469.869354 638.561646,470.517181 
	C640.815552,471.486664 642.418335,472.238403 644.021179,472.990143 
z"/>
<path fill="#3E0808" opacity="1.000000" stroke="none" 
	d="
M737.614136,479.274536 
	C729.605591,480.305817 721.134644,481.280365 712.297791,482.149597 
	C720.338440,481.102142 728.745117,480.159973 737.614136,479.274536 
z"/>
<path fill="#50201E" opacity="1.000000" stroke="none" 
	d="
M665.213501,498.283325 
	C669.038757,498.047150 673.023071,498.064758 677.495728,498.452728 
	C678.022278,499.563049 678.060425,500.303040 678.098633,501.042969 
	C674.652588,501.046448 671.206543,501.049927 667.286621,501.028625 
	C666.332703,500.181580 665.852600,499.359314 665.213501,498.283325 
z"/>
<path fill="#481514" opacity="1.000000" stroke="none" 
	d="
M749.373291,489.990784 
	C756.976135,489.862244 765.058411,489.760254 773.525269,489.777344 
	C765.890808,489.936737 757.871704,489.977020 749.373291,489.990784 
z"/>
<path fill="#3E0808" opacity="1.000000" stroke="none" 
	d="
M689.325073,496.886414 
	C691.393799,494.998901 693.809387,493.055176 696.567383,491.038818 
	C694.497131,492.920868 692.084534,494.875549 689.325073,496.886414 
z"/>
<path fill="#50201E" opacity="1.000000" stroke="none" 
	d="
M545.662109,496.343872 
	C546.665344,496.630981 547.461243,496.849518 548.356934,497.320679 
	C546.969666,497.715424 545.482483,497.857574 543.995361,497.999695 
	C544.025879,497.586517 544.056396,497.173340 544.080322,496.450287 
	C544.073730,496.140381 544.060486,496.087677 544.304626,496.094604 
	C544.548767,496.101532 545.048401,496.114929 545.048401,496.114929 
	C545.048401,496.114929 545.454773,496.275299 545.662109,496.343872 
z"/>
<path fill="#481514" opacity="1.000000" stroke="none" 
	d="
M694.900513,484.677429 
	C693.964539,484.736664 692.899353,484.540161 691.834229,484.343628 
	C692.374939,483.883820 692.915710,483.424011 693.710938,482.928162 
	C694.234070,483.401947 694.502747,483.911804 694.900513,484.677429 
z"/>
<path fill="#481514" opacity="1.000000" stroke="none" 
	d="
M775.504761,489.929626 
	C778.080872,489.818359 781.103760,489.730774 784.485107,489.753174 
	C781.879578,489.893219 778.915527,489.923279 775.504761,489.929626 
z"/>
<path fill="#481514" opacity="1.000000" stroke="none" 
	d="
M763.597900,467.044189 
	C761.942993,467.372162 759.877197,467.673157 757.407043,467.973083 
	C759.064087,467.653748 761.125610,467.335480 763.597900,467.044189 
z"/>
<path fill="#481514" opacity="1.000000" stroke="none" 
	d="
M730.026428,490.047699 
	C731.919983,489.928406 734.310364,489.830658 737.085693,489.879517 
	C735.154785,490.040497 732.839050,490.054871 730.026428,490.047699 
z"/>
<path fill="#481514" opacity="1.000000" stroke="none" 
	d="
M749.138794,473.305756 
	C750.653931,473.242096 752.459595,473.451019 754.624634,473.796509 
	C753.132446,473.814819 751.280884,473.696594 749.138794,473.305756 
z"/>
<path fill="#481514" opacity="1.000000" stroke="none" 
	d="
M714.487610,489.922791 
	C715.846680,489.832947 717.631775,489.770660 719.747009,489.830078 
	C718.355957,489.951324 716.634827,489.950836 714.487610,489.922791 
z"/>
<path fill="#481514" opacity="1.000000" stroke="none" 
	d="
M743.451172,489.940491 
	C744.510010,489.849609 745.987305,489.791473 747.775635,489.850708 
	C746.680908,489.969788 745.275330,489.971558 743.451172,489.940491 
z"/>
<path fill="#481514" opacity="1.000000" stroke="none" 
	d="
M813.586548,469.084351 
	C812.868896,469.169678 811.765991,469.233643 810.396118,469.214294 
	C811.153259,469.108307 812.177246,469.085663 813.586548,469.084351 
z"/>
<path fill="#491A1A" opacity="1.000000" stroke="none" 
	d="
M557.481567,502.895142 
	C558.190186,502.825592 559.278076,502.774048 560.632324,502.803925 
	C559.886108,502.894592 558.873474,502.903870 557.481567,502.895142 
z"/>
<path fill="#481514" opacity="1.000000" stroke="none" 
	d="
M764.702576,479.041260 
	C764.251099,479.125427 763.430359,479.191498 762.369690,479.194824 
	C762.864319,479.095764 763.598755,479.059479 764.702576,479.041260 
z"/>
<path fill="#481514" opacity="1.000000" stroke="none" 
	d="
M721.297974,489.978943 
	C721.765991,489.896759 722.616089,489.830780 723.715210,489.837372 
	C723.202820,489.938354 722.441406,489.966736 721.297974,489.978943 
z"/>
<path fill="#481514" opacity="1.000000" stroke="none" 
	d="
M800.329102,476.942078 
	C800.764221,476.852448 801.555176,476.783234 802.576111,476.776245 
	C802.099060,476.879822 801.392029,476.921173 800.329102,476.942078 
z"/>
<path fill="#481514" opacity="1.000000" stroke="none" 
	d="
M715.452759,475.955505 
	C715.982849,475.885315 716.942383,475.856079 718.185913,475.925537 
	C717.607361,476.014984 716.744751,476.005737 715.452759,475.955505 
z"/>
<path fill="#481514" opacity="1.000000" stroke="none" 
	d="
M742.569824,468.125244 
	C742.110657,468.368164 741.336304,468.610504 740.260376,468.904663 
	C740.724060,468.679199 741.489319,468.401917 742.569824,468.125244 
z"/>
<path fill="#481514" opacity="1.000000" stroke="none" 
	d="
M791.855103,468.748169 
	C791.280334,468.770203 790.477417,468.560547 789.387939,468.230652 
	C789.943237,468.245758 790.785034,468.381104 791.855103,468.748169 
z"/>
<path fill="#3E0808" opacity="1.000000" stroke="none" 
	d="
M544.941895,496.012634 
	C545.048401,496.114929 544.548767,496.101532 544.301025,496.067688 
	C544.288513,495.795349 544.549194,495.754181 544.941895,496.012634 
z"/>
<path fill="#481514" opacity="1.000000" stroke="none" 
	d="
M651.064453,494.170410 
	C651.164429,494.171570 651.381470,494.365234 651.748291,494.716125 
	C651.603455,494.782471 651.364563,494.612335 651.064453,494.170410 
z"/>
<path fill="#481514" opacity="1.000000" stroke="none" 
	d="
M650.143188,493.219910 
	C650.229431,493.249573 650.455750,493.478699 650.853882,493.879242 
	C650.745422,493.878815 650.497925,493.668396 650.143188,493.219910 
z"/>
<path fill="#3E0808" opacity="1.000000" stroke="none" 
	d="
M739.926331,478.918091 
	C739.867798,479.017670 739.683960,479.020294 739.223999,479.018982 
	C739.198181,478.756927 739.482544,478.692291 739.926331,478.918091 
z"/>
<path fill="#3E0808" opacity="1.000000" stroke="none" 
	d="
M652.560059,480.590485 
	C655.615601,478.870148 660.889404,479.937531 662.514893,482.605316 
	C663.980042,485.009796 662.350769,487.718170 659.219849,487.458221 
	C656.458313,487.228943 653.774658,486.154541 651.034668,485.553467 
	C645.545837,484.349335 640.028137,483.273560 634.554260,482.006897 
	C633.211670,481.696228 629.848572,482.105957 633.434204,478.905457 
	C642.559631,480.487061 651.040222,482.208221 660.356567,484.099030 
	C657.296387,482.721893 654.928223,481.656189 652.560059,480.590485 
z"/>
<path fill="#6A413D" opacity="1.000000" stroke="none" 
	d="
M652.204712,480.437805 
	C654.928223,481.656189 657.296387,482.721893 660.356567,484.099030 
	C651.040222,482.208221 642.559631,480.487061 633.671143,478.766663 
	C632.224915,478.292419 631.186646,477.817352 630.148315,477.342285 
	C630.225403,476.956024 630.302551,476.569733 630.379639,476.183472 
	C637.536255,477.550690 644.692810,478.917938 652.204712,480.437805 
z"/>
<path fill="#3E0808" opacity="1.000000" stroke="none" 
	d="
M644.402710,473.027557 
	C642.418335,472.238403 640.815552,471.486664 638.928467,470.554443 
	C642.457703,468.447601 649.063599,470.659210 653.840576,475.704102 
	C654.000000,476.000000 654.005188,475.995331 654.005188,475.995331 
	C650.931580,475.018555 647.857910,474.041779 644.402710,473.027557 
z"/>
<path fill="#3E0808" opacity="1.000000" stroke="none" 
	d="
M632.883057,468.778503 
	C629.624146,468.352478 626.257568,467.695709 622.508850,466.961792 
	C625.676331,467.439026 629.225830,467.993408 632.883057,468.778503 
z"/>
<path fill="#3E0808" opacity="1.000000" stroke="none" 
	d="
M647.988159,476.460144 
	C648.008789,476.462128 647.967590,476.458130 647.988159,476.460144 
z"/>
<path fill="#3E0808" opacity="1.000000" stroke="none" 
	d="
M653.997803,476.002350 
	C653.995544,476.004700 654.030029,476.021759 654.017578,476.008545 
	C654.005188,475.995331 654.000000,476.000000 653.997803,476.002350 
z"/>
<path fill="#000000" opacity="1.000000" stroke="none" 
	d="
M707.576904,373.602783 
	C702.027710,376.886108 696.730225,380.733368 690.881042,383.344849 
	C674.707458,390.565765 651.620300,374.403412 650.149170,355.968781 
	C649.232910,344.488220 650.897095,333.745026 660.089722,325.432922 
	C670.749023,315.794586 684.809570,314.009155 697.503967,320.865356 
	C722.165894,334.185120 728.443726,364.213684 711.238037,386.430939 
	C710.650146,387.190155 710.374817,388.191437 709.879395,389.444611 
	C709.804932,389.809296 709.771851,389.841766 709.771851,389.841766 
	C703.900757,393.855835 698.242676,398.234528 692.117249,401.813354 
	C675.846313,411.319763 651.944153,405.816620 640.683594,393.482697 
	C632.056580,384.033356 625.296082,374.215118 624.428528,361.309906 
	C623.478638,347.179199 626.940735,334.305786 636.948914,323.704163 
	C638.069946,322.516693 638.808350,320.941864 640.006775,319.859558 
	C641.907349,318.143066 644.046509,316.690735 646.665588,315.604095 
	C625.166748,344.125977 625.863831,369.960419 657.021851,389.591583 
	C674.214111,400.423645 695.256531,392.775604 708.145264,374.335571 
	C708.325256,373.675873 708.286499,373.444122 708.247803,373.212402 
	C708.024170,373.342529 707.800537,373.472656 707.576904,373.602783 
z"/>
<path fill="#4F1E1C" opacity="1.000000" stroke="none" 
	d="
M705.077881,397.057098 
	C698.539795,405.595123 689.250793,409.188721 679.269409,411.847046 
	C658.311096,417.428833 626.419067,401.655487 617.729675,377.838745 
	C608.951721,353.779266 617.970459,326.249634 639.247864,311.910583 
	C669.390808,291.597015 706.978943,308.253937 719.128357,335.952362 
	C719.774292,337.424957 720.237854,338.977631 719.873535,340.996979 
	C718.316040,338.612274 716.812988,336.189850 715.191833,333.849243 
	C706.527222,321.339752 694.955139,314.459442 679.348389,314.935333 
	C665.436646,315.359558 653.150452,324.480988 649.105591,337.802917 
	C641.576721,362.599609 657.128479,385.232605 682.944092,387.082001 
	C684.020386,387.159119 685.077271,387.506165 687.472778,388.003540 
	C681.479004,391.528137 676.318542,392.556702 670.784119,391.579651 
	C652.898071,388.421997 641.223633,377.499054 636.206848,360.673706 
	C631.121765,343.619049 637.434753,329.309204 650.762085,317.907166 
	C653.157776,315.857544 657.348572,314.119232 655.172791,310.298279 
	C654.624268,309.335114 648.849121,310.147888 646.406433,311.653870 
	C627.126587,323.540436 615.099243,353.355621 626.386658,377.153687 
	C630.760010,386.374329 636.432800,394.259155 645.051758,400.064026 
	C662.539124,411.841675 681.151184,412.200287 698.856445,400.691406 
	C700.669006,399.513153 702.486084,398.341736 704.656860,397.082611 
	C705.012573,396.998077 705.077881,397.057098 705.077881,397.057098 
z"/>
<path fill="#4F1E1C" opacity="1.000000" stroke="none" 
	d="
M723.432617,352.696716 
	C723.644897,353.216797 723.750305,353.776611 723.855774,354.336456 
	C723.653137,354.350006 723.450500,354.363586 723.247864,354.377136 
	C723.273865,353.830261 723.299866,353.283386 723.432617,352.696716 
z"/>
<path fill="#4F1E1C" opacity="1.000000" stroke="none" 
	d="
M709.821289,389.792908 
	C710.087097,389.990265 710.336487,390.204041 710.933289,390.715485 
	C710.359070,390.340118 710.164978,390.213257 709.871399,389.964081 
	C709.771851,389.841766 709.804932,389.809296 709.821289,389.792908 
z"/>
<path fill="#4F1E1C" opacity="1.000000" stroke="none" 
	d="
M722.385742,347.487701 
	C722.401550,347.445984 722.580017,347.569244 722.580017,347.569244 
	C722.580017,347.569244 722.369934,347.529419 722.385742,347.487701 
z"/>
<path fill="#4F1E1C" opacity="1.000000" stroke="none" 
	d="
M713.541748,387.984680 
	C713.539490,388.013397 713.543945,387.955963 713.541748,387.984680 
z"/>
<path fill="#4F1E1C" opacity="1.000000" stroke="none" 
	d="
M690.976929,386.459656 
	C691.001282,386.461609 690.952637,386.457672 690.976929,386.459656 
z"/>
<path fill="#4F1E1C" opacity="1.000000" stroke="none" 
	d="
M721.495850,344.516052 
	C721.482727,344.484955 721.508911,344.547150 721.495850,344.516052 
z"/>
<path fill="#4F1E1C" opacity="1.000000" stroke="none" 
	d="
M706.122559,396.105469 
	C705.922424,396.351166 705.699280,396.573761 705.265503,396.915192 
	C705.077881,397.057098 705.012573,396.998077 704.979858,396.964905 
	C705.129395,396.673615 705.331970,396.432648 705.785095,396.103119 
	C706.015320,395.997498 706.122559,396.105469 706.122559,396.105469 
z"/>
<path fill="#4F1E1C" opacity="1.000000" stroke="none" 
	d="
M705.960815,395.944366 
	C705.906372,395.891235 706.134399,396.021606 706.128479,396.063538 
	C706.122559,396.105469 706.015320,395.997498 705.960815,395.944366 
z"/>
<path fill="#50201E" opacity="1.000000" stroke="none" 
	d="
M558.091370,497.177795 
	C570.895081,497.432037 583.699036,497.890930 596.502502,497.881348 
	C608.635010,497.872223 620.768311,497.174316 632.898499,497.245331 
	C635.499878,497.260559 638.089539,499.277405 640.847778,500.690491 
	C634.236267,500.956024 627.461670,500.866821 620.686890,500.857239 
	C600.446472,500.828552 580.206116,500.831055 559.412781,500.509460 
	C558.603699,499.190979 558.347534,498.184387 558.091370,497.177795 
z"/>
<path fill="#50201E" opacity="1.000000" stroke="none" 
	d="
M496.942596,500.842499 
	C492.505524,500.842499 488.068451,500.842499 483.631409,500.842499 
	C483.615509,499.977356 483.599609,499.112213 483.583710,498.247070 
	C489.802216,498.137817 496.020691,498.028564 502.375427,498.070190 
	C500.655304,499.094910 498.798950,499.968719 496.942596,500.842499 
z"/>
<path fill="#491A1A" opacity="1.000000" stroke="none" 
	d="
M557.716187,497.217590 
	C558.347534,498.184387 558.603699,499.190979 558.946411,500.494934 
	C553.681946,500.823120 548.330933,500.853912 542.504639,500.570221 
	C542.019592,499.845367 542.009949,499.434967 541.989380,498.807556 
	C541.978455,498.590546 541.953369,498.156647 541.953369,498.156616 
	C542.407166,498.121735 542.860962,498.086853 543.655029,498.025818 
	C545.482483,497.857574 546.969666,497.715424 548.659790,497.374573 
	C551.688904,497.203003 554.514954,497.230164 557.716187,497.217590 
z"/>
<path fill="#50201E" opacity="1.000000" stroke="none" 
	d="
M541.489014,498.138031 
	C541.953369,498.156647 541.978455,498.590546 541.556519,498.805176 
	C539.398804,499.059784 537.662903,499.099701 535.927063,499.139648 
	C527.623047,499.164215 519.319092,499.188782 510.167938,499.152161 
	C507.820068,498.708801 506.319366,498.326630 504.818634,497.944458 
	C516.887329,498.002777 528.956055,498.061096 541.489014,498.138031 
z"/>
<path fill="#481514" opacity="1.000000" stroke="none" 
	d="
M504.548706,497.938293 
	C506.319366,498.326630 507.820068,498.708801 509.704834,499.147919 
	C506.015564,499.768127 501.942261,500.331390 497.405762,500.868561 
	C498.798950,499.968719 500.655304,499.094910 502.856445,498.081360 
	C503.560455,497.938446 503.919647,497.935272 504.548706,497.938293 
z"/>
<path fill="#481514" opacity="1.000000" stroke="none" 
	d="
M536.193115,499.362854 
	C537.662903,499.099701 539.398804,499.059784 541.567505,499.022217 
	C542.009949,499.434967 542.019592,499.845367 542.040222,500.561829 
	C540.187195,500.440674 538.323242,500.013397 536.193115,499.362854 
z"/>
<path fill="#481514" opacity="1.000000" stroke="none" 
	d="
M792.088867,473.961182 
	C783.677307,473.154175 775.277893,472.159698 766.849304,471.616638 
	C762.417908,471.331146 757.936523,471.918976 753.476196,471.963806 
	C746.358459,472.035339 739.239441,471.982910 732.122131,471.651794 
	C757.773438,467.274384 783.455322,470.123932 809.394653,471.527100 
	C808.664490,472.893860 807.669006,474.003632 806.673523,475.113403 
	C806.673523,475.113373 806.208496,475.115509 806.208496,475.115509 
	C806.208496,475.115509 805.743958,475.093109 805.269897,475.016357 
	C804.163818,474.970490 803.531921,475.001343 802.899963,475.032227 
	C801.848938,475.021881 800.797913,475.011597 799.242371,474.852570 
	C798.184937,474.778290 797.632080,474.852722 797.079163,474.927155 
	C796.556885,474.817688 796.034546,474.708252 795.038452,474.363464 
	C793.739441,474.072479 792.914124,474.016846 792.088867,473.961182 
z"/>
<path fill="#481514" opacity="1.000000" stroke="none" 
	d="
M815.979065,476.007172 
	C814.274658,476.015381 812.570190,476.023560 810.586304,475.738617 
	C810.790344,474.093597 811.273926,472.741760 811.757507,471.389893 
	C814.055054,472.011719 816.401489,472.504425 818.617432,473.342133 
	C819.204163,473.563934 819.389526,474.847687 819.759277,475.643799 
	C819.033081,475.814697 818.306885,475.985565 817.182983,476.073517 
	C816.516174,475.973114 816.247437,475.978638 815.979065,476.007172 
z"/>
<path fill="#50201E" opacity="1.000000" stroke="none" 
	d="
M811.478210,471.371460 
	C811.273926,472.741760 810.790344,474.093597 810.160278,475.732422 
	C809.119812,475.806824 808.225830,475.594299 807.002686,475.247559 
	C807.669006,474.003632 808.664490,472.893860 809.866455,471.567169 
	C810.448303,471.351166 810.823608,471.352112 811.478210,471.371460 
z"/>
<path fill="#50201E" opacity="1.000000" stroke="none" 
	d="
M797.392395,474.936188 
	C797.632080,474.852722 798.184937,474.778290 798.848633,474.835083 
	C798.541443,474.959290 798.123535,474.952240 797.392395,474.936188 
z"/>
<path fill="#481514" opacity="1.000000" stroke="none" 
	d="
M724.954590,472.613403 
	C724.914856,472.591095 725.120728,472.397797 725.120728,472.397797 
	C725.120728,472.397797 724.994324,472.635742 724.954590,472.613403 
z"/>
<path fill="#50201E" opacity="1.000000" stroke="none" 
	d="
M792.452637,474.010620 
	C792.914124,474.016846 793.739441,474.072479 794.782837,474.286804 
	C794.272766,474.317017 793.544617,474.188507 792.452637,474.010620 
z"/>
<path fill="#50201E" opacity="1.000000" stroke="none" 
	d="
M803.295288,475.043335 
	C803.531921,475.001343 804.163818,474.970490 805.038452,474.994202 
	C804.750916,475.050629 804.220764,475.052521 803.295288,475.043335 
z"/>
<path fill="#50201E" opacity="1.000000" stroke="none" 
	d="
M816.248230,476.012207 
	C816.247437,475.978638 816.516174,475.973114 816.920532,476.003357 
	C816.876343,476.016541 816.696899,476.016907 816.248230,476.012207 
z"/>
<path fill="#481514" opacity="1.000000" stroke="none" 
	d="
M678.273315,500.884583 
	C678.060425,500.303040 678.022278,499.563049 677.953735,498.455200 
	C678.098267,498.966919 678.273071,499.846558 678.273315,500.884583 
z"/>
<path fill="#3C0505" opacity="1.000000" stroke="none" 
	d="
M707.724304,373.734772 
	C707.800537,373.472656 708.024170,373.342529 708.247803,373.212402 
	C708.286499,373.444122 708.325256,373.675873 708.268188,374.015808 
	C708.172485,374.123993 707.871704,373.866760 707.724304,373.734772 
z"/>
</svg>