<?xml version="1.0" standalone="no"?>
<!DOCTYPE svg PUBLIC "-//W3C//DTD SVG 20010904//EN"
 "http://www.w3.org/TR/2001/REC-SVG-20010904/DTD/svg10.dtd">
<svg version="1.0" xmlns="http://www.w3.org/2000/svg"
 width="1344.000000pt" height="768.000000pt" viewBox="0 0 1344.000000 768.000000"
 preserveAspectRatio="xMidYMid meet">

<g transform="translate(0.000000,768.000000) scale(0.100000,-0.100000)"
fill="#000000" stroke="none">
<path d="M6620 4670 c-231 -30 -432 -210 -485 -431 -73 -312 122 -605 450
-676 275 -60 563 134 640 432 70 269 -103 561 -384 649 -94 29 -150 36 -221
26z m-90 -103 c0 -8 -18 -28 -40 -46 -119 -95 -184 -258 -159 -396 48 -268
326 -437 543 -331 54 27 140 86 133 92 -2 3 -31 -8 -63 -23 -84 -40 -186 -39
-262 0 -72 38 -132 95 -167 159 -25 46 -30 66 -33 148 -3 80 0 104 19 155 30
81 104 154 184 184 135 51 286 10 399 -108 83 -88 119 -171 124 -286 6 -145
-41 -250 -163 -364 -201 -188 -473 -185 -665 7 -196 196 -211 468 -37 698 26
34 68 76 94 93 50 32 93 40 93 18z"/>
<path d="M5106 3394 c-4 -15 -3 -30 1 -35 11 -11 177 -62 303 -94 58 -15 192
-42 298 -60 106 -18 200 -39 208 -46 13 -11 11 -14 -17 -26 -28 -12 -59 -11
-203 1 -94 8 -220 18 -281 21 -60 3 -138 8 -172 11 l-61 5 -7 -40 c-4 -22 -6
-43 -6 -46 1 -3 185 -7 411 -8 312 -2 412 -5 422 -14 7 -8 38 -13 75 -13 35 0
71 -4 81 -10 28 -16 219 -60 235 -54 16 6 71 -19 95 -42 17 -18 2 -18 -45 0
-38 15 -193 47 -308 65 -60 9 -631 -1 -891 -15 l-131 -7 -11 -30 c-6 -17 -10
-33 -7 -35 2 -3 143 5 312 17 481 33 769 25 1013 -29 50 -11 95 -18 101 -15 5
3 29 -3 54 -14 46 -20 59 -46 29 -58 -22 -8 -94 17 -94 34 0 16 -12 17 -27 2
-6 -6 -17 -8 -23 -4 -9 6 -9 9 0 15 8 5 2 10 -16 14 -17 5 -30 3 -34 -4 -5 -8
-19 -10 -41 -4 -33 7 -33 8 -9 14 36 9 -134 30 -248 30 -50 0 -122 -4 -159
-10 -80 -11 -621 -48 -845 -57 l-158 -6 0 -25 0 -25 543 6 c298 3 567 2 597
-3 33 -4 60 -4 67 2 15 12 221 0 229 -14 3 -5 19 -6 34 -3 21 5 41 -1 72 -18
64 -38 110 -46 250 -48 l128 -1 52 38 53 39 718 3 718 2 -3 23 c-3 22 -6 22
-203 28 -110 4 -291 14 -403 23 -399 32 -681 15 -874 -53 -59 -20 -68 -19 -68
10 0 32 96 75 220 100 30 6 66 13 80 15 14 3 137 8 274 11 247 5 265 4 689
-36 43 -4 79 -5 82 -3 3 3 -12 45 -21 60 -4 7 -592 30 -654 26 -184 -13 -303
-27 -374 -45 -43 -11 -95 -19 -114 -17 -34 3 -35 4 -18 20 24 25 193 75 311
93 76 12 184 15 453 14 195 0 356 1 358 4 2 2 -3 25 -12 50 -16 46 -17 47 -57
47 -82 0 -343 -20 -397 -31 -77 -14 -322 -21 -260 -7 25 5 52 16 60 23 8 7 76
27 150 45 126 30 498 132 547 151 20 7 21 11 12 39 -6 16 -14 30 -19 30 -4 0
-38 -11 -75 -25 -133 -50 -314 -107 -545 -171 -287 -80 -390 -114 -491 -164
-116 -57 -179 -102 -252 -180 -36 -39 -72 -70 -79 -69 -7 0 -31 24 -53 52 -23
29 -68 72 -102 97 -34 25 -62 51 -62 58 -1 18 -164 93 -172 80 -4 -6 -12 -7
-18 -4 -6 4 -9 11 -6 16 6 10 -74 35 -82 26 -3 -3 -12 1 -20 9 -9 10 -34 14
-71 13 -95 -2 -642 135 -926 232 -50 16 -93 30 -97 30 -4 0 -10 -12 -13 -26z
m864 -254 c8 -5 11 -10 5 -10 -5 0 -17 5 -25 10 -8 5 -10 10 -5 10 6 0 17 -5
25 -10z"/>
<path d="M5179 2722 c-333 -2 -378 -4 -383 -18 -3 -9 -3 -20 0 -25 3 -6 309
-9 792 -9 433 0 793 1 800 0 6 0 12 -6 12 -13 0 -8 8 -21 18 -30 16 -15 52
-17 296 -17 l277 0 17 30 17 30 773 0 c424 0 772 2 772 5 0 2 -5 14 -10 27
l-11 23 -766 -1 -765 -2 -22 -26 c-11 -14 -34 -30 -51 -34 -16 -4 -136 -5
-266 -2 l-236 5 -25 29 -25 30 -419 0 c-231 1 -588 0 -795 -2z"/>
</g>
</svg>
